<svg fill="#6B3F9E" id="Layer_1" xmlns="http://www.w3.org/2000/svg" version="1.1" viewBox="236 71 608 929"> <defs> </defs> <path class="st0" d="M732.3,332.5c6.4,2.3,9.7,9.4,7.4,15.8-2.3,6.4-9.4,9.8-15.8,7.4-111.4-40.1-227-38.9-353.3,3.8-1.3.4-2.6.6-4,.6-5.2,0-10-3.2-11.7-8.4-2.2-6.5,1.3-13.5,7.8-15.7,131.8-44.5,252.7-45.7,369.6-3.6Z"></path> <path class="st0" d="M737.7,163.6c6.4,2.4,9.7,9.5,7.3,15.9-1.6,4.4-39.5,107.4-44,117.8l-4.3,10.1-10.5-3.1c-90.2-26.4-183.2-26.4-276.4,0l-10.5,3-4.3-10c-3.6-8.4-12.2-30-20.1-50.2,0-.2-.1-.3-.2-.5-10.8-27.4-22.4-57.1-26.2-66.9-2.5-6.4.7-13.5,7-16,6.4-2.5,13.5.7,16,7,3.2,8.2,11.9,30.5,21,53.7,12.6-10.2,22.7-29.4,25.9-51,1-6.8,7.4-11.4,14-10.4,6.8,1,11.4,7.3,10.4,14-3.9,26.3-17.9,56.4-41,71.1,4.2,10.6,8.5,21.4,11.8,29.5,90.5-23.8,180.7-23.8,268.5-.1,2.7-7,6.4-16.9,10.5-28-26.3-14.2-42.9-45.9-47.5-72.1-1.2-6.7,3.3-13.1,10-14.3,6.7-1.2,13.1,3.3,14.3,10,3.9,22.2,16.8,42.9,31.9,52.8,7.8-21.1,15.7-42.4,20.3-55,2.4-6.4,9.5-9.7,15.9-7.3Z"></path> <path class="st0" d="M618.8,163.1c6.7,1.3,11,7.8,9.7,14.5-7.9,40.1-43.3,69.1-84.2,69.1s-76.3-29.1-84.3-69.1c-1.3-6.7,3-13.2,9.7-14.5,6.7-1.4,13.2,3,14.5,9.7,5.6,28.5,30.9,49.2,60,49.2s54.3-20.7,60-49.2c1.3-6.7,7.8-11.1,14.5-9.7Z"></path> <circle class="st0" cx="641.3" cy="115.9" r="31.1" transform="translate(4.5 254.2) rotate(-22.5)"></circle> <circle class="st0" cx="449.3" cy="115.9" r="31.1" transform="translate(263 540.8) rotate(-80.8)"></circle> <path class="st0" d="M351.6,147c-10,0-18-8.1-18-18s8.1-18,18-18,18,8.1,18,18-8.1,18-18,18Z"></path> <circle class="st0" cx="743.2" cy="129" r="18"></circle> <path class="st0" d="M439.4,551.9c.4.7.9,1.8,1.3,3.2,2.4,8.2-2.7,15.8-3.5,17-.9,1.2-1.8,2.4-2.9,3.4-2.5,2.4-5.7,4.2-9.1,4.7-7.1,1-13.6-3.3-20-5.6-6-2.2-13.1-3.8-19.2-.6-2.3,1.2-4.1,3-5.3,5.2-1.6-6.4,3-23.7,19.1-24.8,12.5-.9,24.7,10.6,34.2,4.8,3.1-1.9,4.6-5,5.4-7.2Z"></path> <path class="st0" d="M790.8,667.4h0c-.2-.3-.4-.7-.6-1l.6,1Z"></path> <g> <path class="st0" d="M839.9,561.7c0-1.3,0-2.6,0-3.9.8-34.8-3.4-70-19.1-101.2-18-35.5-72.2-76.4-107.5-88.3-35.4-16.4-73.9-25.2-112.6-28.3-37.6-3-77.6-2.6-114.4,6.9-18.1,4.6-35.6,11.6-51.6,21.1-25.3,14.9-43.2,36.9-56.8,62.6-16.2,42.1-11.3,40.9-11.9,90.7.3,39.4-8.2,47.9-33.2,77.2-15.1,18.8-20.1,27.2-12.2,41.7,3.3,5.9,23.2,6.6,27.6,19,.3,2.9-1.9,4.8-4.2,8.2-8.7,12.2-7.3,23.5,7.6,30-10.1,7.2-7.5,21.3.3,27.2,5.7,5.2,9.9,3.8,12.2,8.1,1.9,3.6,0,6.4-1.7,14.2-.6,2.9-3,14.1-1.1,24.4,4.6,35.7,53.7,32.6,83,23.7,45.8-10,81.5-19.4,117.4,15.6,3.8,4.4,14.6,17,14,34.9-.6,19.7-14.4,32.4-18.9,36.6-41.4,33.9-97.2,15.3-129.8-3.4-49.6-28.8-88.5-72.4-114.2-123.4-7.4-14.7-13.8-29.9-19.3-45.5-16.6-47.3-24.2-97.4-25.5-147.4-1-38,1.2-80.4,26.2-111.3,23.5-29.1,58.5-45.9,88.8-66.1-14.8,5.2-24.3,7.6-29.4,9.3-35.3,11.8-76.3,26.7-94.2,62.2-22,43.5-21.3,94.9-16.4,142.2,5.2,51.2,18.5,102,39.2,149.1,20,45.5,47.7,89,85.8,121.4,22.4,18.8,69.5,57.3,133.1,56.3,39.8,1.9,104.3-17.5,98.9-89.1-5.3-28.7-24.1-51.5-50.8-63-18.4-7.9-38.7-10.9-58.6-9.2-19.6,1.6-38.5,7.8-57.7,11.5-12.3,2.4-24.9,3.7-37.4,2.3-11.5-1.3-16.6-14.8-14.1-24.9,1.9-9.8,4.6-18.7-.2-28.3-3.7-7.2-9.9-12.9-16.2-17.7,3.6-2.8,7.2-5.7,10.8-8.6,3.3-2.6,3-7.6-.6-9.8-4.9-3-9.8-6-14.7-9,17.6-37.2-.2-33-21.7-54.5,7.8-13.9,19.7-27.7,28.3-38.9,6.9-9,11.7-19.6,13.8-30.8,9.3-49.3-8.9-92.1,24.1-133.5-12,137.3,147.1,245.9,205.8,339.9,30.5,48.4,47.9,92,29.5,142.3-20.2,40.5-52,58.6-93,66.1-45.9,5.6-93.4-18.9-125.5-38.6,50.4,78.2,200.6,101.2,243-27.4,20.2-75.8-3.5-117.8-43.3-173.8-41.4-61.8-141.7-146.9-173.8-215.4-26.3-51.6-17.2-85.6-17.2-85.6,0-4.4.6-8.9,2-13.4,7.3-23.9,32.7-37.6,55-44.8,11-3.5,22.2-6.4,33.6-8.5.4,0,.7-.2,1.1-.2h0c-3.7,52.6,10.8,109.2,41.5,161.1,11.3,19.1,35,46.3,82.4,100.6l20.3,23.3c21,24.1,39.3,45,51.8,77.9,8.1,21.1,12,43.4,13.7,65.9,1.8,24.8-.9,49.8-12.5,72.2-9.8,19.2-23.6,36.5-40.9,49.2,5.7-4.2,13.1-6.8,19.1-10.9,6.1-4.2,12-9,17.4-14.2,26.7-25.7,42.9-61.6,44-98.7.7-24.7-4.6-49.6-13.9-73.7-14.4-37.7-35.1-61.4-57-86.5l-20.4-23.3c-44.8-51.2-69.4-79.5-79.3-96.3-28.4-48.2-41.5-100.4-37.2-148.1,21.4-.5,46.7.7,74.6,5.9-.7,24.6,3.2,48.4,11.5,71,14.4,39,38.6,62.6,56.2,79.8,32,31.3,70.2,56,113.8,73.5-5.1,44.3-15,88-29.6,130.1-2.6,7.5-5.4,14.9-8.2,22.2,6.5,18.7,9.3,43.9-.2,73,9.9-20.4,30.8-59.1,39.5-84.4,17.6-51.4,26.1-99,29.8-139.3.5-4.2.9-8.4,1.1-12.7v-.2c0-.8,0-1.5,0-2.3,0-1,0-2,0-2.9.1-4.1.1-8.3,0-12.4ZM811.2,561.3c-37.2-15.9-70-37.6-97.6-64.6-17.4-17-37.2-36.3-49.4-69.2-6.4-17.2-9.6-35.4-9.8-54.2v-.3c43.8,7.5,89.9,34.3,118.8,67.6,28.1,32.5,38.9,72.3,38,114.5,0,0,0,2.4,0,6.2Z"></path> <path class="st0" d="M840,574.2c0,1-.1,1.9-.2,2.9,0-1,0-2,0-2.9h.1Z"></path> </g> <path class="st0" d="M780.3,418.3h0Z"></path> <path class="st0" d="M522.1,362.3h0c-.4.2-.8.2-1.1.2.4,0,.7-.2,1.1-.2Z"></path> </svg>